<svg width="600" height="600" viewBox="0 0 600 600" fill="none" xmlns="http://www.w3.org/2000/svg">
<rect width="600" height="600" rx="20" fill="#ECEBFF"/>
<path d="M247.305 100.092C237.322 100.183 234.324 100.29 233.815 100.626C233.756 100.672 232.286 100.764 230.54 100.84C228.794 100.932 225.781 101.13 223.846 101.298C220.542 101.588 219.771 101.695 217.18 102.275C216.627 102.398 215.637 102.535 214.997 102.596C214.357 102.657 213.178 102.856 212.378 103.054C211.577 103.253 210.209 103.574 209.321 103.787C208.448 104.001 207.458 104.23 207.138 104.291C206.818 104.337 205.508 104.704 204.228 105.07C202.947 105.437 201.346 105.91 200.662 106.109C198.392 106.75 195.234 107.865 192.949 108.796C190.271 109.896 189.369 110.247 188.874 110.384C188.67 110.446 188.103 110.69 187.593 110.934C187.084 111.179 186.647 111.377 186.618 111.377C186.575 111.377 186.138 111.576 185.643 111.82C183.635 112.782 183.358 112.904 182.601 113.194C180.957 113.851 169.533 120.036 169.009 120.555C168.936 120.631 168.79 120.693 168.688 120.693C168.514 120.693 167.743 121.181 165.225 122.907C164.584 123.35 163.566 123.991 162.969 124.358C162.372 124.724 161.485 125.335 161.004 125.732C160.524 126.129 159.549 126.877 158.821 127.381C158.108 127.885 156.857 128.817 156.056 129.443C155.256 130.084 154.048 131.031 153.364 131.566C148.794 135.139 146.145 137.613 140.644 143.462C134.896 149.586 132.582 152.396 126.804 160.337C126.033 161.406 125.218 162.627 123.02 166.048C120.939 169.286 117.592 175.15 117.024 176.555C116.922 176.83 116.646 177.379 116.413 177.776C115.438 179.517 114.507 181.304 114.201 182.083C114.026 182.541 113.735 183.167 113.561 183.457C113.401 183.747 113.139 184.297 112.993 184.679C112.847 185.061 112.615 185.61 112.469 185.901C112.324 186.191 111.858 187.29 111.436 188.344C111.028 189.398 110.33 191.139 109.879 192.238C109.049 194.33 108.976 194.529 108.19 196.972C107.928 197.812 107.579 198.835 107.405 199.263C106.575 201.401 106.168 202.653 105.702 204.608C105.411 205.784 105.047 207.158 104.887 207.647C104.741 208.151 104.479 209.128 104.319 209.815C104.174 210.503 103.854 211.678 103.606 212.427C103.373 213.175 103.039 214.778 102.864 216C102.689 217.207 102.34 219.36 102.063 220.795C101.802 222.216 101.51 223.865 101.423 224.46C101.336 225.041 101.132 226.324 100.972 227.301C100.71 228.95 100.623 230.004 100.244 235.028C99.8223 240.938 99.9678 255.476 100.521 262.333C100.768 265.341 100.943 266.502 101.772 270.885C101.903 271.557 102.078 272.58 102.165 273.176C102.238 273.756 102.456 275.13 102.646 276.23C102.835 277.314 103.068 278.765 103.155 279.437C103.257 280.109 103.592 281.514 103.897 282.567C104.203 283.606 104.465 284.553 104.465 284.675C104.465 284.782 104.727 285.713 105.047 286.736C105.353 287.76 105.789 289.256 105.993 290.05C106.459 291.776 107.623 295.502 108.176 296.999C108.38 297.579 108.642 298.388 108.758 298.785C108.86 299.167 109.122 299.87 109.326 300.343C109.544 300.816 109.908 301.733 110.155 302.389C110.403 303.031 110.854 304.115 111.159 304.787C111.465 305.459 111.814 306.314 111.931 306.696C112.12 307.276 114.114 311.751 114.899 313.339C116.515 316.607 117.243 318.042 117.868 319.142C118.101 319.554 118.421 320.18 118.581 320.532C118.742 320.868 118.989 321.31 119.135 321.524C119.28 321.723 119.644 322.364 119.935 322.96C120.241 323.54 120.735 324.411 121.041 324.869C121.972 326.228 124.068 329.496 124.243 329.878C124.388 330.168 125.756 332.199 128.187 335.711C128.463 336.124 129.322 337.254 130.079 338.231C131.432 339.972 131.81 340.445 134.765 344.187C135.565 345.195 138.054 347.974 140.31 350.372C144.632 354.953 145.607 355.946 147.819 357.931C148.576 358.603 149.478 359.443 149.857 359.779C150.22 360.13 151.079 360.878 151.763 361.458C152.447 362.023 153.422 362.879 153.946 363.352C154.47 363.826 155.416 364.574 156.042 365.032C156.653 365.49 157.512 366.162 157.919 366.513C158.327 366.88 158.705 367.17 158.763 367.17C158.894 367.17 159.418 367.536 160.932 368.712C162.169 369.659 163.682 370.667 166.826 372.606C168.034 373.339 169.271 374.149 169.576 374.378C169.882 374.607 170.231 374.806 170.348 374.806C170.464 374.806 170.784 374.989 171.061 375.218C171.337 375.432 172.24 375.966 173.054 376.409C180.855 380.563 182.66 381.494 183.416 381.754C183.897 381.907 185.207 382.472 186.327 383.021C188.888 384.258 194.622 386.412 195.394 386.412C196.267 386.412 197.65 385.343 198.683 383.877C199.032 383.388 199.556 382.701 199.862 382.365C200.153 382.029 200.749 381.204 201.171 380.532C201.608 379.86 202.321 378.913 202.772 378.425C203.223 377.936 203.82 377.188 204.097 376.775C204.373 376.348 205.276 375.172 206.09 374.164C206.905 373.141 207.808 372.026 208.084 371.66C208.361 371.308 209.38 370.071 210.34 368.911C211.301 367.765 212.305 366.498 212.581 366.116C213.454 364.864 215.55 362.253 216.613 361.061C217.18 360.435 217.85 359.611 218.126 359.229C218.403 358.847 218.912 358.19 219.276 357.763C219.64 357.351 220.149 356.724 220.411 356.388C220.658 356.068 221.051 355.579 221.284 355.319C221.517 355.06 221.939 354.51 222.245 354.082C222.536 353.67 223.031 353.013 223.365 352.647C223.685 352.28 223.947 351.929 223.947 351.868C223.947 351.807 224.588 350.998 225.374 350.081C226.145 349.18 227.091 348.02 227.484 347.531C228.43 346.294 229.609 344.859 230.831 343.454C231.413 342.782 232.054 341.972 232.286 341.621C232.505 341.285 233.232 340.384 233.902 339.621C235.343 337.987 236.842 336.2 237.307 335.528C237.482 335.268 237.977 334.657 238.399 334.184C238.806 333.711 239.519 332.825 239.956 332.214C240.393 331.603 241.28 330.458 241.921 329.664C242.561 328.87 243.332 327.892 243.638 327.495C243.944 327.098 244.54 326.396 244.962 325.938C245.384 325.479 246.287 324.38 246.971 323.494C247.655 322.609 248.368 321.753 248.542 321.585C248.717 321.417 249.11 320.898 249.416 320.44C249.721 319.982 250.347 319.203 250.813 318.714C251.278 318.226 251.861 317.523 252.108 317.157C252.603 316.408 255.455 312.85 255.819 312.499C256.067 312.27 256.969 311.216 258.366 309.521C259.632 307.979 260.782 306.65 261.859 305.474C264.085 303.046 264.784 302.038 264.638 301.443C264.537 301.046 263.94 300.206 262.965 299.137C262.586 298.709 261.917 297.884 261.495 297.304C260.724 296.25 258.468 293.257 257.1 291.486C256.387 290.569 254.859 288.752 253.636 287.378C253.272 286.95 252.166 285.576 251.177 284.293C250.202 283.01 249.066 281.575 248.644 281.101C248.222 280.613 247.466 279.651 246.942 278.963C245.894 277.558 244.278 275.558 242.503 273.481C241.863 272.717 240.946 271.557 240.465 270.885C239.985 270.228 239.49 269.572 239.374 269.449C238.865 268.884 236.056 265.357 235.474 264.563C235.124 264.089 234.455 263.28 233.989 262.745C233.509 262.226 232.665 261.157 232.112 260.378C231.559 259.599 230.584 258.347 229.958 257.614C229.332 256.881 228.444 255.782 227.979 255.171C227.513 254.575 226.843 253.781 226.509 253.399C226.174 253.018 224.864 251.399 223.598 249.811C220.396 245.764 218.665 243.626 217.428 242.221C216.845 241.549 216.06 240.602 215.681 240.113C215.303 239.625 214.546 238.678 213.978 238.021C212.887 236.708 211.49 234.952 210.689 233.852C210.413 233.47 209.641 232.508 208.957 231.714C208.273 230.92 207.167 229.576 206.483 228.736C205.814 227.896 205.13 227.072 204.955 226.904C204.664 226.629 203.471 225.163 201.855 223.117C201.201 222.277 200.298 221.116 198.799 219.222C198.29 218.581 197.577 217.711 197.213 217.314C196.849 216.901 196.282 216.214 195.947 215.756C195.408 215.023 194.055 213.374 192.731 211.862C192.483 211.572 191.726 210.64 191.042 209.785C189.587 207.968 187.957 205.998 186.924 204.837C185.76 203.508 185.134 202.745 184.406 201.722C183.722 200.805 181.102 197.522 178.658 194.544C177.959 193.704 176.809 192.315 176.125 191.475C174.67 189.703 174.393 189.153 174.626 188.588C175.034 187.672 172.574 187.733 209.918 187.703C241.339 187.672 244.147 187.687 244.642 187.916C245.414 188.283 246.403 189.291 248.208 191.597C249.066 192.681 250.245 194.147 250.798 194.819C251.366 195.506 252.006 196.331 252.239 196.667C252.486 197.003 253.141 197.797 253.709 198.423C254.757 199.599 257.056 202.332 257.711 203.203C258.657 204.47 259.879 206.059 260.476 206.776C260.84 207.204 261.422 207.983 261.786 208.502C262.15 209.037 262.746 209.77 263.125 210.167C263.503 210.548 263.984 211.098 264.187 211.388C264.376 211.678 264.929 212.335 265.395 212.839C265.861 213.358 266.501 214.152 266.836 214.626C267.171 215.099 267.884 216 268.437 216.642C268.975 217.268 270.052 218.596 270.809 219.589C271.566 220.582 272.614 221.88 273.138 222.49C273.661 223.101 274.607 224.292 275.248 225.148C275.888 226.003 276.747 227.102 277.14 227.576C277.547 228.064 278.551 229.347 279.395 230.416C280.24 231.485 281.477 232.997 282.146 233.761C282.801 234.524 283.543 235.502 283.791 235.944C284.023 236.372 284.373 236.845 284.576 236.983C284.766 237.105 285.377 237.792 285.915 238.495C288.36 241.686 289.859 243.58 290.165 243.855C290.354 244.023 290.791 244.573 291.14 245.077C291.489 245.581 292.173 246.466 292.654 247.062C293.701 248.345 296.35 251.781 297.398 253.216C298.388 254.575 299.683 255.919 300.294 256.225C300.731 256.438 300.832 256.438 301.182 256.24C301.764 255.919 302.346 255.324 303.292 254.056C303.758 253.46 304.471 252.559 304.907 252.071C305.329 251.582 305.853 250.895 306.086 250.528C306.319 250.177 306.916 249.459 307.411 248.925C307.891 248.406 308.458 247.734 308.648 247.444C308.837 247.153 309.303 246.558 309.681 246.146C310.059 245.718 310.627 245.015 310.947 244.573C311.253 244.13 312.097 243.122 312.795 242.328C313.508 241.534 314.163 240.694 314.265 240.465C314.353 240.22 315.051 239.274 315.793 238.342C316.55 237.41 317.976 235.608 318.966 234.326C319.956 233.058 321.047 231.714 321.411 231.363C321.76 231.012 322.284 230.34 322.575 229.882C322.852 229.424 323.623 228.446 324.263 227.713C324.904 226.98 325.544 226.201 325.66 226.003C325.791 225.804 326.315 225.163 326.839 224.598C327.363 224.018 328.047 223.193 328.367 222.75C329.517 221.177 331.685 218.428 331.787 218.428C331.846 218.428 331.947 218.276 332.035 218.077C332.122 217.894 332.631 217.222 333.184 216.596C333.738 215.97 334.436 215.13 334.742 214.733C335.047 214.336 335.469 213.816 335.688 213.587C336.43 212.808 339.311 209.174 339.69 208.563C339.879 208.242 340.578 207.402 341.218 206.715C341.873 206.028 342.499 205.265 342.615 205.02C342.731 204.776 342.921 204.532 343.037 204.486C343.299 204.379 347.359 199.324 348.378 197.827C348.8 197.186 349.557 196.224 350.052 195.705C350.532 195.17 351.056 194.575 351.216 194.391C352.715 192.635 353.341 191.841 353.661 191.291C353.879 190.94 354.418 190.253 354.854 189.78C355.291 189.291 355.829 188.68 356.033 188.39C356.237 188.115 357.037 187.138 357.809 186.237C358.58 185.336 359.322 184.45 359.439 184.282C359.788 183.763 362.029 181.06 363.164 179.792C363.732 179.166 364.503 178.189 364.882 177.624C365.26 177.059 366.002 176.127 366.526 175.562C367.05 174.982 367.69 174.188 367.967 173.76C368.229 173.348 368.898 172.477 369.437 171.836C369.975 171.194 370.674 170.339 370.979 169.927C371.285 169.515 371.911 168.766 372.377 168.262C372.842 167.758 373.483 166.964 373.803 166.506C374.123 166.048 374.574 165.498 374.792 165.284C375.011 165.071 375.826 164.078 376.582 163.07C377.354 162.062 378.111 161.1 378.285 160.917C378.445 160.749 378.751 160.367 378.969 160.062C379.187 159.756 379.799 159.023 380.337 158.428C380.876 157.832 381.56 156.992 381.88 156.549C382.185 156.106 382.855 155.251 383.364 154.671C383.874 154.075 384.63 153.113 385.052 152.533C385.475 151.937 386.129 151.113 386.508 150.7C386.886 150.273 387.483 149.586 387.832 149.143C389.317 147.28 392.213 143.737 392.518 143.401C392.693 143.202 393.246 142.469 393.755 141.752C394.818 140.27 395.924 138.896 397.859 136.727C400.872 133.337 401.352 132.772 401.352 132.65C401.352 132.574 402.007 131.764 402.822 130.848C403.622 129.916 404.627 128.679 405.063 128.099C405.485 127.504 406.228 126.572 406.693 126.007C408.716 123.579 410.055 121.945 410.593 121.227C410.899 120.799 411.641 119.96 412.223 119.333C412.806 118.707 413.286 118.142 413.286 118.081C413.286 118.02 413.519 117.699 413.81 117.379C414.363 116.783 415.643 115.103 416.415 113.973C416.662 113.622 417.142 113.042 417.506 112.706C418.205 112.034 419.893 109.957 421.086 108.323C421.479 107.773 422.032 107.086 422.309 106.796C426.151 102.734 427.213 101.13 426.631 100.305C426.413 100 426.093 100 342.309 100C296.059 100 253.316 100.046 247.305 100.092Z" fill="url(#paint0_linear_336_99)"/>
<path d="M403.317 213.77C402.589 214.106 399.315 217.924 395.895 222.399C394.44 224.308 393.319 225.743 391.893 227.453C391.209 228.263 390.292 229.408 389.855 229.958C389.419 230.523 388.793 231.302 388.458 231.699C387.92 232.34 385.227 235.654 383.146 238.266C382.695 238.815 382.113 239.518 381.851 239.808C381.574 240.098 380.527 241.381 379.508 242.664C378.475 243.931 377.47 245.168 377.252 245.412C377.048 245.642 376.699 246.084 376.481 246.375C376.277 246.665 375.928 247.108 375.709 247.367C375.506 247.611 374.88 248.39 374.327 249.062C373.788 249.749 372.886 250.849 372.318 251.521C371.765 252.178 370.616 253.613 369.772 254.697C368.928 255.782 367.88 257.08 367.443 257.599C367.007 258.118 366.352 258.897 365.988 259.355C365.624 259.798 365.027 260.516 364.663 260.943C363.834 261.921 360.836 265.586 359.613 267.128C358.1 269.022 356.819 270.595 355.539 272.106C354.884 272.885 354.069 273.908 353.719 274.367C352.293 276.291 350.736 278.276 349.906 279.223C349.412 279.773 348.829 280.521 348.582 280.903C348.335 281.269 347.127 282.842 345.89 284.4C344.653 285.942 343.125 287.912 342.484 288.767C340.825 290.982 339.413 292.707 337.23 295.166C335.149 297.503 334.989 297.747 334.989 298.449C334.989 299.182 336.168 300.832 338.54 303.397C340.01 305.001 342.019 307.444 342.673 308.421C343.023 308.941 343.678 309.781 344.129 310.285C344.58 310.788 345.235 311.552 345.57 312.01C346.123 312.758 347.214 314.041 349.252 316.393C349.703 316.897 350.358 317.722 350.707 318.226C351.071 318.73 351.988 319.86 352.744 320.745C353.996 322.196 355.175 323.616 356.936 325.831C357.285 326.273 357.882 326.961 358.26 327.388C359.148 328.381 361.811 331.679 362.582 332.748C362.917 333.207 363.572 334.016 364.038 334.535C364.518 335.07 365.391 336.108 366.017 336.856C366.628 337.62 367.37 338.521 367.691 338.857C368.738 340.063 372.391 344.629 372.872 345.362C373.046 345.637 373.381 346.065 373.614 346.325C373.832 346.569 374.385 347.287 374.822 347.898C375.258 348.508 375.768 349.104 375.957 349.241C376.146 349.364 376.466 349.745 376.67 350.066C376.874 350.402 377.383 351.028 377.791 351.471C378.198 351.914 379.042 352.968 379.668 353.807C380.294 354.647 381.007 355.533 381.269 355.793C381.531 356.037 382.026 356.694 382.36 357.244C382.71 357.793 383.277 358.511 383.612 358.847C383.932 359.183 384.383 359.702 384.587 359.992C384.791 360.282 385.271 360.863 385.649 361.29C386.304 362.023 387.658 363.764 388.909 365.505C389.229 365.948 389.826 366.681 390.219 367.155C390.947 367.994 392.446 369.858 393.857 371.66C394.265 372.179 394.876 372.896 395.225 373.278C395.56 373.66 396.011 374.24 396.23 374.576C396.433 374.912 397.045 375.676 397.568 376.256C398.092 376.852 399.213 378.257 400.072 379.387C400.916 380.517 402.065 381.968 402.633 382.609C403.186 383.25 404.016 384.319 404.481 384.976C404.947 385.648 405.82 386.763 406.446 387.481C407.057 388.198 407.829 389.13 408.149 389.573C408.716 390.321 409.109 390.81 411.758 393.955C412.398 394.719 413.053 395.544 413.199 395.788C413.344 396.032 413.999 396.826 414.654 397.544C415.309 398.262 416.037 399.163 416.269 399.545C416.852 400.476 417.739 401.606 419.398 403.515C420.155 404.401 421.014 405.394 421.29 405.745C422.12 406.753 423.808 408.753 424.128 409.089C425.525 410.616 425.744 411.624 424.783 412.144C424.303 412.403 404.554 412.571 374.982 412.556H356.672C356.11 412.556 355.559 412.408 355.073 412.128C354.665 411.899 354.112 411.426 353.865 411.09C353.297 410.311 351.58 408.219 351.362 408.02C351.158 407.852 349.877 406.188 348.626 404.462C348.16 403.836 347.272 402.721 346.661 401.988C345.409 400.492 344.769 399.697 343.256 397.758C342.688 397.025 341.917 396.063 341.553 395.635C341.189 395.208 340.563 394.429 340.156 393.894C339.763 393.375 339.195 392.657 338.89 392.306C338.598 391.97 338.045 391.283 337.653 390.81C337.274 390.336 336.343 389.191 335.601 388.29C334.844 387.389 333.81 386.121 333.301 385.495C332.792 384.869 331.686 383.495 330.827 382.441C329.968 381.387 328.935 380.089 328.513 379.539C328.091 378.99 327.465 378.241 327.13 377.86C326.81 377.478 326.316 376.882 326.068 376.516C325.122 375.172 324.133 373.92 322.765 372.362C321.324 370.713 319.286 368.269 317.758 366.345C317.278 365.75 316.507 364.833 316.055 364.314C315.604 363.795 314.848 362.863 314.382 362.252C313.494 361.077 311.195 358.282 309.783 356.663C309.317 356.144 308.837 355.487 308.706 355.228C308.575 354.953 307.993 354.189 307.425 353.502C306.858 352.83 305.839 351.563 305.155 350.677C304.471 349.806 303.54 348.646 303.074 348.096C302.623 347.546 301.764 346.462 301.167 345.714C299.828 343.988 299.814 343.973 298.926 343.851C298.097 343.759 298.14 343.728 296.714 345.485C296.35 345.943 295.666 346.752 295.186 347.317C293.876 348.844 292.348 350.723 291.038 352.433C290.398 353.273 289.234 354.77 288.448 355.777C287.676 356.77 286.745 357.977 286.381 358.45C286.032 358.923 284.984 360.221 284.053 361.336C283.136 362.451 281.928 363.932 281.389 364.619C280.851 365.307 280.138 366.177 279.832 366.559C279.512 366.941 278.552 368.117 277.693 369.17C274.142 373.523 273.385 374.439 273.138 374.668C273.007 374.79 271.959 376.103 270.809 377.569C269.674 379.02 268.291 380.7 267.753 381.296C267.215 381.876 266.676 382.533 266.545 382.731C266.414 382.945 265.803 383.693 265.177 384.396C264.551 385.113 263.955 385.831 263.838 386.014C263.722 386.198 263.198 386.854 262.674 387.481C262.135 388.107 261.408 389.008 261.058 389.466C260.418 390.275 258.832 392.23 258.322 392.81C258.191 392.978 257.828 393.406 257.537 393.772C257.246 394.123 256.62 394.887 256.154 395.452C255.688 396.032 254.611 397.33 253.767 398.354C252.923 399.392 251.861 400.766 251.41 401.408C250.801 402.273 250.079 403.058 249.408 403.875C248.54 404.93 247.343 406.435 246.651 407.348C246.214 407.929 245.166 409.211 244.322 410.189C243.478 411.181 242.459 412.434 242.066 412.968C241.659 413.503 241.077 414.251 240.757 414.648C240.436 415.03 239.199 416.572 237.992 418.069C236.798 419.565 235.299 421.428 234.688 422.192C234.062 422.971 233.276 423.979 232.942 424.437C232.607 424.895 231.966 425.689 231.501 426.193C231.05 426.697 230.322 427.583 229.914 428.178C229.085 429.324 227.382 431.355 226.189 432.592C225.781 433.019 225.126 433.844 224.748 434.439C223.948 435.661 223.453 436.303 221.401 438.731C220.6 439.678 219.291 441.266 218.49 442.243C217.69 443.22 216.773 444.35 216.453 444.732C216.118 445.114 215.667 445.71 215.434 446.046C215.201 446.382 214.575 447.206 214.037 447.878C213.513 448.55 213.018 449.207 212.945 449.344C212.873 449.482 212.305 450.184 211.665 450.902C211.039 451.62 210.413 452.398 210.267 452.643C210.136 452.872 209.875 453.208 209.685 453.376C209.511 453.544 208.798 454.399 208.114 455.285C206.163 457.774 205.334 458.797 204.432 459.79C203.966 460.294 203.369 461.027 203.107 461.424C202.845 461.821 201.972 462.936 201.172 463.913C200.371 464.89 199.396 466.127 198.989 466.646C197.723 468.326 197.126 469.075 196.369 469.96C195.059 471.503 193.546 473.366 192.643 474.526C192.163 475.153 191.494 476.023 191.159 476.451C190.824 476.878 190.126 477.794 189.602 478.497C189.078 479.184 188.539 479.826 188.408 479.932C188.088 480.177 186.356 482.284 185.323 483.689C184.872 484.315 183.882 485.522 183.14 486.362C181.146 488.606 179.967 490.042 179.094 491.264C178.672 491.875 177.872 492.913 177.304 493.585C176.751 494.272 175.922 495.311 175.485 495.906C175.048 496.502 174.568 497.067 174.437 497.143C173.942 497.433 173.288 498.624 173.331 499.159C173.404 499.938 174.001 500.075 177.159 499.968C178.599 499.907 211.082 499.831 249.343 499.785C320.552 499.709 360.792 499.525 365.522 499.266C366.992 499.189 368.564 499.052 369.015 498.976C369.466 498.884 371.183 498.716 372.828 498.579C374.472 498.456 376.757 498.273 377.922 498.182C379.086 498.09 380.396 497.937 380.832 497.846C381.269 497.754 382.68 497.662 383.961 497.662H385.068C385.871 497.662 386.663 497.474 387.381 497.113C388.575 496.502 390.859 495.708 391.893 495.524C393.756 495.219 400.29 493.325 402.371 492.47C403.055 492.195 404.234 491.813 404.991 491.63C406.693 491.203 407.276 490.989 409.939 489.798C411.103 489.294 412.602 488.652 413.286 488.393C414.465 487.95 415.513 487.446 417.972 486.117C418.583 485.797 419.398 485.415 419.791 485.277C420.17 485.14 420.839 484.789 421.261 484.514C421.683 484.224 422.993 483.506 424.172 482.91C425.351 482.315 426.646 481.597 427.039 481.322C427.446 481.062 428.087 480.62 428.48 480.36C428.873 480.085 429.251 479.871 429.309 479.871C429.629 479.871 431.23 478.97 432.133 478.268C432.7 477.84 433.646 477.199 434.243 476.817C435.378 476.13 437.445 474.679 437.954 474.221C438.114 474.084 438.652 473.702 439.147 473.396C439.657 473.076 440.399 472.541 440.821 472.19C441.243 471.839 442.058 471.213 442.611 470.816C443.179 470.418 444.154 469.67 444.809 469.151C445.463 468.616 446.468 467.792 447.064 467.318C450.019 464.936 453.802 461.439 456.582 458.507C457.936 457.071 459.085 455.896 459.144 455.896C459.26 455.896 462.389 452.368 463.568 450.932C463.975 450.428 464.688 449.634 465.154 449.146C465.62 448.657 466.246 447.893 466.537 447.435C466.828 446.977 467.541 446.046 468.123 445.389C468.69 444.717 469.491 443.74 469.898 443.205C470.291 442.671 470.888 441.877 471.223 441.464C471.878 440.609 473.377 438.471 474.046 437.417C474.279 437.036 474.788 436.272 475.167 435.738C476.142 434.348 477.408 432.317 477.743 431.645C477.903 431.339 478.558 430.286 479.213 429.324C479.867 428.362 480.624 427.125 480.901 426.575C481.177 426.025 481.788 424.926 482.269 424.131C482.749 423.337 483.287 422.375 483.448 421.993C483.928 420.909 485.427 417.702 485.732 417.107C486.023 416.557 487.042 414.343 488.337 411.456C488.73 410.571 489.138 409.532 489.24 409.12C489.327 408.723 489.56 408.036 489.749 407.593C489.938 407.165 490.331 406.172 490.622 405.424C490.928 404.661 491.292 403.775 491.437 403.439C491.568 403.103 491.728 402.553 491.787 402.217C491.888 401.606 493.169 397.422 493.911 395.269C494.13 394.643 494.479 393.36 494.697 392.444C494.916 391.512 495.279 389.909 495.527 388.855C495.774 387.801 496.153 386.182 496.385 385.266C496.997 382.869 497.23 381.632 497.477 379.356C497.608 378.257 497.768 377.081 497.841 376.73C497.914 376.394 498.074 375.248 498.205 374.195C498.336 373.141 498.568 371.598 498.714 370.759C498.859 369.919 499.092 368.193 499.209 366.941C499.34 365.673 499.514 363.932 499.602 363.047C499.704 362.161 499.82 360.893 499.893 360.221C500.038 358.603 500.038 348.157 499.878 346.019C499.5 340.628 499.151 337.162 498.714 334.642C498.568 333.756 498.365 332.413 498.277 331.664C498.19 330.901 497.986 329.496 497.841 328.534C497.681 327.572 497.491 326.197 497.404 325.51C497.331 324.807 496.778 322.15 496.182 319.631C495.585 317.095 495.047 314.774 495.003 314.484C494.843 313.537 493.824 309.735 493.227 307.917C492.907 306.925 492.383 305.123 491.961 303.626C491.757 302.909 491.379 301.809 491.103 301.183C490.637 300.099 489.72 297.747 488.89 295.471C488.425 294.189 485.922 288.37 485.732 288.111C485.66 288.019 484.961 286.599 484.175 284.98C482.589 281.697 481.73 280.017 481.483 279.666C481.396 279.544 481.163 279.131 480.973 278.765C480.784 278.398 480.319 277.604 479.94 277.009C479.576 276.413 479.009 275.497 478.689 274.962C477.393 272.778 474.876 268.838 474.264 268.029C473.901 267.556 473.377 266.807 473.1 266.38C472.824 265.952 472.329 265.234 471.994 264.807C471.674 264.364 470.946 263.387 470.408 262.638C469.855 261.875 469.069 260.852 468.676 260.332C468.268 259.828 467.512 258.866 466.988 258.194C466.464 257.538 465.882 256.82 465.678 256.606C465.489 256.392 464.761 255.537 464.077 254.697C462.112 252.3 454.094 243.839 452.871 242.877C452.274 242.404 451.561 241.778 451.27 241.488C450.994 241.182 450.441 240.663 450.033 240.342C449.64 240.006 448.52 239.044 447.545 238.204C445.172 236.158 442.756 234.234 440.573 232.63C439.628 231.943 436.819 230.034 436.761 230.034C436.717 230.034 436.309 229.775 435.858 229.454C435.407 229.133 434.621 228.584 434.097 228.248C433.573 227.912 432.598 227.27 431.914 226.827C431.23 226.385 430.386 225.85 430.022 225.636C429.659 225.438 428.713 224.827 427.898 224.292C427.097 223.773 425.351 222.765 424.041 222.078C422.731 221.391 421.407 220.658 421.116 220.459C420.81 220.261 419.908 219.833 419.107 219.497C417.681 218.902 415.411 217.772 415.105 217.512C415.032 217.451 414.334 217.13 413.577 216.825C412.82 216.519 411.831 216.107 411.394 215.908C409.633 215.114 406.475 213.877 405.835 213.709C404.947 213.496 403.87 213.511 403.317 213.77Z" fill="url(#paint1_linear_336_99)"/>
<defs>
<linearGradient id="paint0_linear_336_99" x1="263.39" y1="100" x2="263.39" y2="386.412" gradientUnits="userSpaceOnUse">
<stop stop-color="#0D09FF"/>
<stop offset="1" stop-color="#AFADFF"/>
</linearGradient>
<linearGradient id="paint1_linear_336_99" x1="336.665" y1="213.561" x2="336.665" y2="500" gradientUnits="userSpaceOnUse">
<stop stop-color="#0D09FF"/>
<stop offset="1" stop-color="#AFADFF"/>
</linearGradient>
</defs>
</svg>
